<svg width="14" height="14" viewBox="0 0 14 14" fill="none" xmlns="http://www.w3.org/2000/svg">
<path d="M12.577 6.26434L11.7837 5.34268C11.632 5.16768 11.5095 4.84101 11.5095 4.60768V3.61601C11.5095 2.99768 11.002 2.49018 10.3837 2.49018H9.39201C9.16451 2.49018 8.83201 2.36768 8.65701 2.21601L7.73534 1.42268C7.33284 1.07851 6.67367 1.07851 6.26534 1.42268L5.34951 2.22184C5.17451 2.36768 4.84201 2.49018 4.61451 2.49018H3.60534C2.98701 2.49018 2.47951 2.99768 2.47951 3.61601V4.61351C2.47951 4.84101 2.35701 5.16768 2.21117 5.34268L1.42367 6.27018C1.08534 6.67268 1.08534 7.32601 1.42367 7.72851L2.21117 8.65601C2.35701 8.83101 2.47951 9.15768 2.47951 9.38518V10.3827C2.47951 11.001 2.98701 11.5085 3.60534 11.5085H4.61451C4.84201 11.5085 5.17451 11.631 5.34951 11.7827L6.27117 12.576C6.67367 12.9202 7.33284 12.9202 7.74117 12.576L8.66284 11.7827C8.83784 11.631 9.16451 11.5085 9.39784 11.5085H10.3895C11.0078 11.5085 11.5153 11.001 11.5153 10.3827V9.39101C11.5153 9.16351 11.6378 8.83101 11.7895 8.65601L12.5828 7.73434C12.9212 7.33184 12.9212 6.66684 12.577 6.26434ZM9.42701 5.89684L6.60951 8.71434C6.52747 8.79627 6.41628 8.84229 6.30034 8.84229C6.1844 8.84229 6.0732 8.79627 5.99117 8.71434L4.57951 7.30268C4.49814 7.22035 4.45251 7.10926 4.45251 6.99351C4.45251 6.87776 4.49814 6.76667 4.57951 6.68434C4.74867 6.51518 5.02867 6.51518 5.19784 6.68434L6.30034 7.78684L8.80867 5.27851C8.97784 5.10934 9.25784 5.10934 9.42701 5.27851C9.59617 5.44768 9.59617 5.72768 9.42701 5.89684Z" fill="#667EFA"/>
</svg>
