<svg width="24" height="24" viewBox="0 0 24 24" fill="none" xmlns="http://www.w3.org/2000/svg">
<g clip-path="url(#clip0_12787_203)">
<mask id="mask0_12787_203" style="mask-type:luminance" maskUnits="userSpaceOnUse" x="0" y="0" width="24" height="24">
<path d="M24 0H0V24H24V0Z" fill="white"/>
</mask>
<g mask="url(#mask0_12787_203)">
<path d="M17 21.25H7C3.35 21.25 1.25 19.15 1.25 15.5V8.5C1.25 4.85 3.35 2.75 7 2.75H17C20.65 2.75 22.75 4.85 22.75 8.5V15.5C22.75 19.15 20.65 21.25 17 21.25ZM7 4.25C4.14 4.25 2.75 5.64 2.75 8.5V15.5C2.75 18.36 4.14 19.75 7 19.75H17C19.86 19.75 21.25 18.36 21.25 15.5V8.5C21.25 5.64 19.86 4.25 17 4.25H7Z" fill="black"/>
<path d="M12.0008 12.87C11.1608 12.87 10.3108 12.61 9.66076 12.08L6.53076 9.57997C6.21076 9.31997 6.15076 8.84997 6.41076 8.52997C6.67076 8.20997 7.14076 8.14997 7.46076 8.40997L10.5908 10.91C11.3508 11.52 12.6408 11.52 13.4008 10.91L16.5308 8.40997C16.8508 8.14997 17.3308 8.19997 17.5808 8.52997C17.8408 8.84997 17.7908 9.32997 17.4608 9.57997L14.3308 12.08C13.6908 12.61 12.8408 12.87 12.0008 12.87Z" fill="black"/>
</g>
</g>
<defs>
<clipPath id="clip0_12787_203">
<rect width="24" height="24" fill="white"/>
</clipPath>
</defs>
</svg>
