<svg width="65" height="65" viewBox="0 0 65 65" fill="none" xmlns="http://www.w3.org/2000/svg">
<path d="M2.34634 33.7216C0.940344 33.7867 -0.156984 34.9815 0.0180226 36.3781C0.695584 41.7852 2.72421 46.9498 5.93434 51.3869C9.64373 56.5142 14.7693 60.4469 20.6821 62.7025C26.5948 64.958 33.0374 65.4383 39.2192 64.0843C45.4011 62.7304 51.0531 59.6011 55.4817 55.0805C59.9103 50.5599 62.9228 44.8448 64.1494 38.6365C65.3761 32.4281 64.7635 25.9967 62.3869 20.1316C60.0103 14.2664 55.9731 9.22275 50.7707 5.61951C46.2685 2.50125 41.0633 0.579184 35.6435 0.0128819C34.2436 -0.133387 33.0716 0.988264 33.0354 2.3953C32.9992 3.80233 34.1133 4.96005 35.5109 5.12672C39.9377 5.65464 44.1826 7.25666 47.8686 9.80962C52.255 12.8478 55.6591 17.1005 57.663 22.0458C59.6669 26.9911 60.1834 32.4138 59.1491 37.6485C58.1148 42.8832 55.5748 47.702 51.8407 51.5136C48.1067 55.3252 43.341 57.9637 38.1287 59.1054C32.9164 60.247 27.4842 59.842 22.4988 57.9402C17.5133 56.0384 13.1916 52.7224 10.0639 48.3993C7.43575 44.7666 5.74683 40.5555 5.12805 36.1405C4.9327 34.7466 3.75233 33.6566 2.34634 33.7216Z" fill="#0C7DA1"/>
</svg>
