<svg width="30" height="30" viewBox="0 0 30 30" fill="none" xmlns="http://www.w3.org/2000/svg">
<g clip-path="url(#clip0_12964_1547)">
<path d="M6.75 0.5625H19.5332L25.6875 6.21484V27C25.6875 28.3461 24.5961 29.4374 23.25 29.4375H6.75C5.40381 29.4375 4.3125 28.3462 4.3125 27V3C4.3125 1.65381 5.40381 0.5625 6.75 0.5625Z" stroke="#D0D5DD" stroke-width="1.125"/>
<mask id="path-2-inside-1_12964_1547" fill="white">
<path d="M18.75 0.75H25.125V7.125H19.5C19.0858 7.125 18.75 6.78921 18.75 6.375V0.75Z"/>
</mask>
<path d="M18.75 0.75H25.125H18.75ZM25.125 7.875H19.5C18.6716 7.875 18 7.20343 18 6.375H19.5H25.125V7.875ZM19.5 7.875C18.6716 7.875 18 7.20343 18 6.375V0.75H19.5V6.375V7.875ZM25.125 0.75V7.125V0.75Z" fill="#D0D5DD" mask="url(#path-2-inside-1_12964_1547)"/>
<path d="M12 24C12.8284 24 13.5 23.3284 13.5 22.5C13.5 21.6716 12.8284 21 12 21C11.1716 21 10.5 21.6716 10.5 22.5C10.5 23.3284 11.1716 24 12 24Z" stroke="#6172F3" stroke-linecap="round" stroke-linejoin="round"/>
<path d="M13.5 22.5V16L19.5 15V21.5" stroke="#6172F3" stroke-linecap="round" stroke-linejoin="round"/>
<path d="M18 23C18.8284 23 19.5 22.3284 19.5 21.5C19.5 20.6716 18.8284 20 18 20C17.1716 20 16.5 20.6716 16.5 21.5C16.5 22.3284 17.1716 23 18 23Z" stroke="#6172F3" stroke-linecap="round" stroke-linejoin="round"/>
</g>
<defs>
<clipPath id="clip0_12964_1547">
<rect width="30" height="30" fill="white"/>
</clipPath>
</defs>
</svg>
