<svg width="24" height="24" viewBox="0 0 24 24" fill="none" xmlns="http://www.w3.org/2000/svg">
<path d="M22 15V9C22 4 20 2 15 2H9C4 2 2 4 2 9V15C2 20 4 22 9 22H15C20 22 22 20 22 15Z" stroke="#667EFA" stroke-width="1.5" stroke-linecap="round" stroke-linejoin="round"/>
<path d="M11.74 15.1801C11.74 15.7424 11.5166 16.2816 11.1191 16.6792C10.7215 17.0767 10.1823 17.3001 9.62 17.3001C9.05774 17.3001 8.51851 17.0767 8.12093 16.6792C7.72336 16.2816 7.5 15.7424 7.5 15.1801C7.5 14.6178 7.72336 14.0786 8.12093 13.681C8.51851 13.2835 9.05774 13.0601 9.62 13.0601C10.1823 13.0601 10.7215 13.2835 11.1191 13.681C11.5166 14.0786 11.74 14.6178 11.74 15.1801ZM11.74 15.1801V7.7701M11.74 7.7701V8.3901C11.74 8.9901 12.2 9.6301 12.77 9.8201L15.11 10.6001C15.87 10.8601 16.5 10.4101 16.5 9.6001V8.9801C16.5 8.3801 16.04 7.7401 15.47 7.5501L13.13 6.7701C12.36 6.5101 11.74 6.9701 11.74 7.7701Z" stroke="#667EFA" stroke-width="1.5" stroke-linecap="round" stroke-linejoin="round"/>
</svg>
