<svg width="44" height="44" viewBox="0 0 44 44" fill="none" xmlns="http://www.w3.org/2000/svg">
<g clip-path="url(#clip0_12699_2617)">
<mask id="mask0_12699_2617" style="mask-type:luminance" maskUnits="userSpaceOnUse" x="4" y="5" width="31" height="36">
<path d="M7.71741 5.49165C5.90368 5.49165 4.41992 6.97565 4.41992 8.78925V37.6158C4.41992 39.4296 5.90368 40.9136 7.71741 40.9136H31.0018C32.8155 40.9136 34.2994 39.4296 34.2994 37.6158V13.6517C34.2994 12.9368 33.9969 12.2551 33.4667 11.7757L27.2416 6.14531C26.7766 5.72456 26.1717 5.49165 25.5446 5.49165H7.71741Z" fill="white"/>
</mask>
<g mask="url(#mask0_12699_2617)">
<path d="M25.5446 5.49203H7.71727C5.90379 5.49203 4.41992 6.97589 4.41992 8.78962V37.6162C4.41992 39.43 5.90379 40.9138 7.71727 40.9138H31.0018C32.8155 40.9138 34.2994 39.43 34.2994 37.6162V13.6521C34.2994 12.9371 33.9969 12.2555 33.4665 11.7759L27.2416 6.14556C26.7765 5.72494 26.1716 5.49203 25.5446 5.49203Z" fill="#E7E7E8"/>
<mask id="mask1_12699_2617" style="mask-type:luminance" maskUnits="userSpaceOnUse" x="27" y="11" width="8" height="7">
<path d="M27.0859 11.3435H34.2985V17.6311H27.0859V11.3435Z" fill="white"/>
</mask>
<g mask="url(#mask1_12699_2617)">
<g opacity="0.0700073">
<path d="M27.0859 12.6828L34.2986 17.6289V11.3423L27.0859 12.6828Z" fill="black"/>
</g>
</g>
<path d="M25.9854 5.00883L35.4433 13.563H29.359C27.4957 13.563 25.9854 12.0526 25.9854 10.1895V10.0088V5.00883Z" fill="#D2D3D4"/>
<mask id="mask2_12699_2617" style="mask-type:luminance" maskUnits="userSpaceOnUse" x="5" y="6" width="6" height="5">
<path d="M5.52734 6.59199H10.573V10.4478H5.52734V6.59199Z" fill="white"/>
</mask>
<g mask="url(#mask2_12699_2617)">
<g opacity="0.610001">
<path d="M6.11405 10.432C5.71262 10.3459 5.45681 9.95087 5.54311 9.54908C5.97574 7.5329 7.96802 6.24442 9.98444 6.67705C10.3859 6.76323 10.6416 7.15822 10.5554 7.56002C10.4692 7.96182 10.0738 8.21701 9.67241 8.13096C8.45785 7.87031 7.25754 8.64642 6.99689 9.8611C6.91084 10.2629 6.51548 10.5181 6.11405 10.432Z" fill="white"/>
</g>
</g>
<mask id="mask3_12699_2617" style="mask-type:luminance" maskUnits="userSpaceOnUse" x="-5" y="-4" width="29" height="29">
<path d="M-4.39062 -3.44921H23.188V24.1294H-4.39062V-3.44921Z" fill="white"/>
</mask>
<g mask="url(#mask3_12699_2617)">
<g opacity="0.649994">
<path d="M23.1874 10.3402C23.1874 17.9557 17.0139 24.1292 9.39844 24.1292C1.78296 24.1292 -4.39062 17.9557 -4.39062 10.3402C-4.39062 2.72474 1.78296 -3.44884 9.39844 -3.44884C17.0139 -3.44884 23.1874 2.72474 23.1874 10.3402Z" fill="white"/>
</g>
</g>
</g>
<mask id="mask4_12699_2617" style="mask-type:luminance" maskUnits="userSpaceOnUse" x="-371" y="-286" width="446" height="574">
<path d="M-370.221 -285.89H74.3024V287.283H-370.221V-285.89Z" fill="white"/>
</mask>
<g mask="url(#mask4_12699_2617)">
<mask id="mask5_12699_2617" style="mask-type:luminance" maskUnits="userSpaceOnUse" x="8" y="17" width="23" height="16">
<path d="M8.42188 17.6333H30.0744V32.519H8.42188V17.6333Z" fill="white"/>
</mask>
<g mask="url(#mask5_12699_2617)">
<g opacity="0.270004">
<path d="M28.926 20.051H9.57106C8.93895 20.051 8.42188 19.5339 8.42188 18.902V18.7833C8.42188 18.1512 8.93895 17.6342 9.57106 17.6342H28.926C29.558 17.6342 30.0749 18.1512 30.0749 18.7833V18.902C30.0749 19.5339 29.558 20.051 28.926 20.051Z" fill="#323139"/>
<path d="M28.926 26.2834H9.57106C8.93895 26.2834 8.42188 25.7664 8.42188 25.1345V25.0158C8.42188 24.3838 8.93895 23.8667 9.57106 23.8667H28.926C29.558 23.8667 30.0749 24.3838 30.0749 25.0158V25.1345C30.0749 25.7664 29.558 26.2834 28.926 26.2834Z" fill="#323139"/>
<path d="M28.926 32.5203H9.57106C8.93895 32.5203 8.42188 32.0032 8.42188 31.3713V31.2526C8.42188 30.6206 8.93895 30.1035 9.57106 30.1035H28.926C29.558 30.1035 30.0749 30.6206 30.0749 31.2526V31.3713C30.0749 32.0032 29.558 32.5203 28.926 32.5203Z" fill="#323139"/>
</g>
</g>
</g>
<mask id="mask6_12699_2617" style="mask-type:luminance" maskUnits="userSpaceOnUse" x="11" y="2" width="30" height="37">
<path d="M14.3044 2.74241C12.4908 2.74241 11.0068 4.22626 11.0068 6.03998V34.8666C11.0068 36.6802 12.4908 38.1641 14.3044 38.1641H37.589C39.4026 38.1641 40.8864 36.6802 40.8864 34.8666V10.9024C40.8864 10.1874 40.5839 9.50587 40.0537 9.02619L33.8285 3.39591C33.3637 2.97529 32.7588 2.74241 32.1315 2.74241H14.3044Z" fill="white"/>
</mask>
<g mask="url(#mask6_12699_2617)">
<path d="M32.1315 2.74349H14.3043C12.4907 2.74349 11.0068 4.22736 11.0068 6.04109V34.8677C11.0068 36.6814 12.4907 38.1653 14.3043 38.1653H37.5887C39.4024 38.1653 40.8863 36.6814 40.8863 34.8677V10.9035C40.8863 10.1886 40.5838 9.50696 40.0535 9.0274L33.8285 3.39702C33.3634 2.9764 32.7586 2.74349 32.1315 2.74349Z" fill="#F2F2F2"/>
<mask id="mask7_12699_2617" style="mask-type:luminance" maskUnits="userSpaceOnUse" x="33" y="8" width="8" height="7">
<path d="M33.6738 8.59472H40.8864V14.8811H33.6738V8.59472Z" fill="white"/>
</mask>
<g mask="url(#mask7_12699_2617)">
<g opacity="0.0700073">
<path d="M33.6738 9.93532L40.8864 14.8816V8.59484L33.6738 9.93532Z" fill="black"/>
</g>
</g>
<path d="M32.5732 2.26054L42.0312 10.8147H35.9469C34.0836 10.8147 32.5732 9.30433 32.5732 7.4412V7.26054V2.26054Z" fill="#E7E7E8"/>
<mask id="mask8_12699_2617" style="mask-type:luminance" maskUnits="userSpaceOnUse" x="12" y="3" width="6" height="5">
<path d="M12.1152 3.84298H17.1609V7.69751H12.1152V3.84298Z" fill="white"/>
</mask>
<g mask="url(#mask8_12699_2617)">
<g opacity="0.610001">
<path d="M12.7029 7.6774C12.3015 7.59122 12.0457 7.19624 12.132 6.79444C12.5646 4.77826 14.5569 3.48978 16.5734 3.92241C16.9747 4.00859 17.2304 4.40358 17.1442 4.80538C17.0581 5.20718 16.6627 5.46237 16.2613 5.37632C15.0467 5.11567 13.8464 5.89178 13.5859 7.10647C13.4997 7.50826 13.1043 7.76346 12.7029 7.6774Z" fill="white"/>
</g>
</g>
<mask id="mask9_12699_2617" style="mask-type:luminance" maskUnits="userSpaceOnUse" x="2" y="-7" width="28" height="29">
<path d="M2.19727 -6.1936H29.7746V21.385H2.19727V-6.1936Z" fill="white"/>
</mask>
<g mask="url(#mask9_12699_2617)">
<g opacity="0.639999">
<path d="M29.7753 7.59607C29.7753 15.2116 23.6018 21.385 15.9863 21.385C8.37085 21.385 2.19727 15.2116 2.19727 7.59607C2.19727 -0.0194035 8.37085 -6.19299 15.9863 -6.19299C23.6018 -6.19299 29.7753 -0.0194035 29.7753 7.59607Z" fill="white"/>
</g>
</g>
</g>
<mask id="mask10_12699_2617" style="mask-type:luminance" maskUnits="userSpaceOnUse" x="15" y="14" width="22" height="16">
<path d="M15.0098 14.8765H36.6636V29.7634H15.0098V14.8765Z" fill="white"/>
</mask>
<g mask="url(#mask10_12699_2617)">
<g opacity="0.520004">
<path d="M35.5137 17.293H16.1588C15.5268 17.293 15.0098 16.7759 15.0098 16.1439V16.0253C15.0098 15.3932 15.5268 14.8762 16.1588 14.8762H35.5137C36.1457 14.8762 36.6627 15.3932 36.6627 16.0253V16.1439C36.6627 16.7759 36.1457 17.293 35.5137 17.293Z" fill="black"/>
<path d="M35.5137 23.5281H16.1588C15.5268 23.5281 15.0098 23.0111 15.0098 22.3791V22.2605C15.0098 21.6284 15.5268 21.1113 16.1588 21.1113H35.5137C36.1457 21.1113 36.6627 21.6284 36.6627 22.2605V22.3791C36.6627 23.0111 36.1457 23.5281 35.5137 23.5281Z" fill="black"/>
<path d="M35.5137 29.7622H16.1588C15.5268 29.7622 15.0098 29.2451 15.0098 28.6133V28.4945C15.0098 27.8625 15.5268 27.3455 16.1588 27.3455H35.5137C36.1457 27.3455 36.6627 27.8625 36.6627 28.4945V28.6133C36.6627 29.2451 36.1457 29.7622 35.5137 29.7622Z" fill="black"/>
</g>
</g>
</g>
<defs>
<clipPath id="clip0_12699_2617">
<rect width="44" height="44" fill="white"/>
</clipPath>
</defs>
</svg>
