<svg width="32" height="32" viewBox="0 0 32 32" fill="none" xmlns="http://www.w3.org/2000/svg">
<g clip-path="url(#clip0_12162_3406)">
<path d="M7.20044 0.599609H20.8352L27.4006 6.62891V28.8008C27.4006 30.2367 26.2369 31.4012 24.801 31.4014H7.20044C5.76446 31.4014 4.59985 30.2368 4.59985 28.8008V3.2002C4.59985 1.76421 5.76446 0.599609 7.20044 0.599609Z" stroke="#D0D5DD" stroke-width="1.20004"/>
<mask id="path-2-inside-1_12162_3406" fill="white">
<path d="M20.0007 0.799805H26.8009V7.60001H20.8008C20.3589 7.60001 20.0007 7.24183 20.0007 6.79999V0.799805Z"/>
</mask>
<path d="M20.0007 0.799805H26.8009H20.0007ZM26.8009 8.40004H20.8008C19.9171 8.40004 19.2007 7.68367 19.2007 6.79999H20.8008H26.8009V8.40004ZM20.8008 8.40004C19.9171 8.40004 19.2007 7.68367 19.2007 6.79999V0.799805H20.8008V6.79999V8.40004ZM26.8009 0.799805V7.60001V0.799805Z" fill="#D0D5DD" mask="url(#path-2-inside-1_12162_3406)"/>
<rect x="0.800049" y="16.0005" width="19.2001" height="10.8001" rx="1.60005" fill="#6172F3"/>
<path d="M6.56056 18.7842V22.6083C6.56056 23.2004 6.39256 23.6564 6.05655 23.9764C5.72587 24.2964 5.27785 24.4564 4.7125 24.4564C4.12049 24.4564 3.6458 24.2884 3.28846 23.9524C2.93112 23.6164 2.75244 23.139 2.75244 22.5203H4.11249C4.11249 22.755 4.16049 22.9337 4.25649 23.0563C4.35249 23.1737 4.49116 23.2324 4.6725 23.2324C4.83784 23.2324 4.96585 23.179 5.05651 23.0724C5.14718 22.9657 5.19252 22.811 5.19252 22.6083V18.7842H6.56056ZM11.9457 20.5923C11.9457 20.9176 11.8711 21.2163 11.7217 21.4883C11.5724 21.755 11.343 21.971 11.0337 22.1363C10.7244 22.3017 10.3403 22.3843 9.88166 22.3843H9.03364V24.4004H7.66559V18.7842H9.88166C10.3297 18.7842 10.7084 18.8616 11.0177 19.0162C11.327 19.1709 11.559 19.3842 11.7137 19.6562C11.8684 19.9283 11.9457 20.2403 11.9457 20.5923ZM9.77766 21.2963C10.039 21.2963 10.2337 21.235 10.3617 21.1123C10.4897 20.9896 10.5537 20.8163 10.5537 20.5923C10.5537 20.3683 10.4897 20.1949 10.3617 20.0723C10.2337 19.9496 10.039 19.8883 9.77766 19.8883H9.03364V21.2963H9.77766ZM16.386 20.5603C16.2847 20.3736 16.138 20.2323 15.946 20.1363C15.7594 20.0349 15.538 19.9843 15.282 19.9843C14.8393 19.9843 14.4847 20.1309 14.218 20.4243C13.9513 20.7123 13.818 21.099 13.818 21.5843C13.818 22.1017 13.9566 22.507 14.234 22.8003C14.5167 23.0884 14.9033 23.2324 15.394 23.2324C15.73 23.2324 16.0127 23.147 16.242 22.9763C16.4767 22.8057 16.6474 22.5603 16.7541 22.2403H15.018V21.2323H17.9941V22.5043C17.8928 22.8457 17.7194 23.163 17.4741 23.4564C17.2341 23.7497 16.9274 23.987 16.5541 24.1684C16.1807 24.3497 15.7594 24.4404 15.29 24.4404C14.7353 24.4404 14.2393 24.3204 13.802 24.0804C13.37 23.835 13.0313 23.4964 12.7859 23.0643C12.5459 22.6323 12.4259 22.139 12.4259 21.5843C12.4259 21.0296 12.5459 20.5363 12.7859 20.1043C13.0313 19.6669 13.37 19.3282 13.802 19.0882C14.234 18.8429 14.7273 18.7202 15.282 18.7202C15.954 18.7202 16.5194 18.8829 16.9781 19.2082C17.4421 19.5336 17.7488 19.9843 17.8981 20.5603H16.386Z" fill="white"/>
</g>
<defs>
<clipPath id="clip0_12162_3406">
<rect width="32.001" height="32.001" fill="white"/>
</clipPath>
</defs>
</svg>
