<svg width="53" height="53" viewBox="0 0 53 53" fill="none" xmlns="http://www.w3.org/2000/svg">
<circle cx="26.1923" cy="26.4867" r="22.5737" fill="white" stroke="#E0E5FF" stroke-width="1.20393"/>
<g filter="url(#filter0_d_12699_2606)">
<circle cx="26.4869" cy="26.4864" r="16.855" fill="#667EFA"/>
</g>
<path d="M33.6296 23.5969C33.2383 23.5969 32.9273 23.908 32.9273 24.2992V25.8844C32.9273 29.436 30.0378 32.3254 26.4862 32.3254C22.9346 32.3254 20.0452 29.436 20.0452 25.8844V24.2892C20.0452 23.8979 19.7342 23.5869 19.3429 23.5869C18.9516 23.5869 18.6406 23.8979 18.6406 24.2892V25.8744C18.6406 29.9577 21.7809 33.3187 25.784 33.6799V35.8168C25.784 36.2081 26.095 36.5191 26.4862 36.5191C26.8775 36.5191 27.1885 36.2081 27.1885 35.8168V33.6799C31.1816 33.3287 34.3319 29.9577 34.3319 25.8744V24.2892C34.3274 24.1053 34.2517 23.9302 34.1207 23.8011C33.9897 23.6719 33.8136 23.5987 33.6296 23.5969Z" fill="white"/>
<path d="M26.4843 16.4539C24.0363 16.4539 22.0498 18.4403 22.0498 20.8883V26.0251C22.0498 28.4731 24.0363 30.4596 26.4843 30.4596C28.9323 30.4596 30.9188 28.4731 30.9188 26.0251V20.8883C30.9188 18.4403 28.9323 16.4539 26.4843 16.4539ZM27.7986 23.4266C27.7283 23.6875 27.4976 23.858 27.2367 23.858C27.1866 23.858 27.1364 23.848 27.0862 23.838C26.695 23.7276 26.2836 23.7276 25.8924 23.838C25.5713 23.9283 25.2603 23.7376 25.18 23.4266C25.0897 23.1156 25.2804 22.7946 25.5914 22.7143C26.1833 22.5538 26.8053 22.5538 27.3973 22.7143C27.6982 22.7946 27.8788 23.1156 27.7986 23.4266ZM28.3303 21.4803C28.2889 21.593 28.2137 21.6901 28.1149 21.7584C28.0161 21.8266 27.8986 21.8627 27.7785 21.8615C27.7083 21.8615 27.6481 21.8515 27.5779 21.8314C26.8756 21.5706 26.093 21.5706 25.3907 21.8314C25.2443 21.8833 25.0834 21.8756 24.9426 21.8099C24.8018 21.7442 24.6925 21.6258 24.6383 21.4803C24.5279 21.1793 24.6884 20.8382 24.9894 20.7378C25.9551 20.3867 27.0135 20.3867 27.9792 20.7378C28.2801 20.8482 28.4407 21.1793 28.3303 21.4803Z" fill="white"/>
<defs>
<filter id="filter0_d_12699_2606" x="0.000385284" y="-0.000102997" width="52.9729" height="52.9729" filterUnits="userSpaceOnUse" color-interpolation-filters="sRGB">
<feFlood flood-opacity="0" result="BackgroundImageFix"/>
<feColorMatrix in="SourceAlpha" type="matrix" values="0 0 0 0 0 0 0 0 0 0 0 0 0 0 0 0 0 0 127 0" result="hardAlpha"/>
<feOffset/>
<feGaussianBlur stdDeviation="4.81573"/>
<feComposite in2="hardAlpha" operator="out"/>
<feColorMatrix type="matrix" values="0 0 0 0 0.607692 0 0 0 0 0.67131 0 0 0 0 1 0 0 0 1 0"/>
<feBlend mode="normal" in2="BackgroundImageFix" result="effect1_dropShadow_12699_2606"/>
<feBlend mode="normal" in="SourceGraphic" in2="effect1_dropShadow_12699_2606" result="shape"/>
</filter>
</defs>
</svg>
