<svg width="30" height="30" viewBox="0 0 30 30" fill="none" xmlns="http://www.w3.org/2000/svg">
<g clip-path="url(#clip0_12699_2719)">
<path d="M6.75 0.5625H19.5332L25.6875 6.21484V27C25.6875 28.3461 24.5961 29.4374 23.25 29.4375H6.75C5.40381 29.4375 4.3125 28.3462 4.3125 27V3C4.3125 1.65381 5.40381 0.5625 6.75 0.5625Z" stroke="#D0D5DD" stroke-width="1.125"/>
<mask id="path-2-inside-1_12699_2719" fill="white">
<path d="M18.75 0.75H25.125V7.125H19.5C19.0858 7.125 18.75 6.78921 18.75 6.375V0.75Z"/>
</mask>
<path d="M18.75 0.75H25.125H18.75ZM25.125 7.875H19.5C18.6716 7.875 18 7.20343 18 6.375H19.5H25.125V7.875ZM19.5 7.875C18.6716 7.875 18 7.20343 18 6.375V0.75H19.5V6.375V7.875ZM25.125 0.75V7.125V0.75Z" fill="#D0D5DD" mask="url(#path-2-inside-1_12699_2719)"/>
<rect x="0.75" y="15" width="18" height="9.5" rx="1.5" fill="#F04438"/>
<path d="M7.11202 18.68C7.11202 18.985 7.04202 19.265 6.90202 19.52C6.76202 19.77 6.54702 19.9725 6.25702 20.1275C5.96702 20.2825 5.60702 20.36 5.17702 20.36H4.38202V22.25H3.09952V16.985H5.17702C5.59702 16.985 5.95202 17.0575 6.24202 17.2025C6.53202 17.3475 6.74952 17.5475 6.89452 17.8025C7.03952 18.0575 7.11202 18.35 7.11202 18.68ZM5.07952 19.34C5.32452 19.34 5.50702 19.2825 5.62702 19.1675C5.74702 19.0525 5.80702 18.89 5.80702 18.68C5.80702 18.47 5.74702 18.3075 5.62702 18.1925C5.50702 18.0775 5.32452 18.02 5.07952 18.02H4.38202V19.34H5.07952ZM9.7522 16.985C10.3072 16.985 10.7922 17.095 11.2072 17.315C11.6222 17.535 11.9422 17.845 12.1672 18.245C12.3972 18.64 12.5122 19.0975 12.5122 19.6175C12.5122 20.1325 12.3972 20.59 12.1672 20.99C11.9422 21.39 11.6197 21.7 11.1997 21.92C10.7847 22.14 10.3022 22.25 9.7522 22.25H7.7797V16.985H9.7522ZM9.6697 21.14C10.1547 21.14 10.5322 21.0075 10.8022 20.7425C11.0722 20.4775 11.2072 20.1025 11.2072 19.6175C11.2072 19.1325 11.0722 18.755 10.8022 18.485C10.5322 18.215 10.1547 18.08 9.6697 18.08H9.0622V21.14H9.6697ZM16.6564 16.985V18.0125H14.5114V19.1225H16.1164V20.12H14.5114V22.25H13.2289V16.985H16.6564Z" fill="white"/>
</g>
<defs>
<clipPath id="clip0_12699_2719">
<rect width="30" height="30" fill="white"/>
</clipPath>
</defs>
</svg>
