<svg width="17" height="17" viewBox="0 0 17 17" fill="none" xmlns="http://www.w3.org/2000/svg">
<path d="M8.33333 0C3.73333 0 0 3.73333 0 8.33333C0 12.9333 3.73333 16.6667 8.33333 16.6667C12.9333 16.6667 16.6667 12.9333 16.6667 8.33333C16.6667 3.73333 12.9417 0 8.33333 0ZM10.8333 10.1917L8.41667 11.5833C8.12574 11.7529 7.79505 11.8422 7.45833 11.8422C7.12161 11.8422 6.79092 11.7529 6.5 11.5833C6.20677 11.4155 5.96346 11.1727 5.79505 10.8798C5.62664 10.5869 5.53919 10.2545 5.54167 9.91667V7.125C5.54167 6.43333 5.9 5.80833 6.5 5.45833C7.1 5.10833 7.81667 5.10833 8.425 5.45833L10.8417 6.85C11.4417 7.2 11.8 7.81667 11.8 8.51667C11.8 9.21667 11.4417 9.84167 10.8333 10.1917Z" fill="white"/>
</svg>
