<svg width="20" height="20" viewBox="0 0 20 20" fill="none" xmlns="http://www.w3.org/2000/svg">
<path d="M14.167 15.3582H10.8337L7.12533 17.8249C7.00018 17.9083 6.85473 17.9562 6.70449 17.9635C6.55426 17.9707 6.40488 17.937 6.27229 17.866C6.13969 17.795 6.02886 17.6894 5.95161 17.5603C5.87436 17.4312 5.8336 17.2836 5.83366 17.1332V15.3582C3.33366 15.3582 1.66699 13.6916 1.66699 11.1916V6.19157C1.66699 3.69157 3.33366 2.0249 5.83366 2.0249H14.167C16.667 2.0249 18.3337 3.69157 18.3337 6.19157V11.1916C18.3337 13.6916 16.667 15.3582 14.167 15.3582Z" stroke="black" stroke-width="1.5" stroke-miterlimit="10" stroke-linecap="round" stroke-linejoin="round"/>
<path d="M9.99954 9.46655V9.29155C9.99954 8.72489 10.3495 8.42489 10.6995 8.18322C11.0412 7.94989 11.3829 7.64989 11.3829 7.09989C11.3829 6.33322 10.7662 5.71655 9.99954 5.71655C9.23288 5.71655 8.61621 6.33322 8.61621 7.09989M9.99538 11.4582H10.0037" stroke="black" stroke-width="1.5" stroke-linecap="round" stroke-linejoin="round"/>
</svg>
